# This file uses centimeters as units for non-parametric coordinates.

mtllib boss_hidarisita1.mtl
g default
v 91.740051 93.215546 -96.909073
v 91.740051 93.215546 -96.909073
v 91.740051 93.215538 -96.909073
v 91.740051 93.215538 -96.909073
v 93.533997 112.624191 -134.109711
v 112.712334 110.919022 -128.698257
v 93.154312 93.205833 -138.882889
v 112.332642 91.500664 -133.471436
v 100.704956 118.291939 -157.737823
v 119.883293 116.586769 -152.326355
v 119.503601 97.168411 -157.099533
v 100.325272 98.873581 -162.511002
v 87.303322 116.332375 -128.593964
v 115.684265 113.808983 -120.585838
v 131.219101 126.426468 -160.549225
v 97.069611 129.462753 -170.185028
v 115.122383 85.072845 -127.649399
v 130.543015 91.849594 -169.048492
v 86.741440 87.596230 -135.657516
v 96.393532 94.885872 -178.684280
vt 0.875911 0.598066
vt 0.875911 0.598066
vt 0.875911 0.598066
vt 0.875911 0.598066
vt 0.934532 0.646034
vt 0.880925 0.650655
vt 0.899810 0.533089
vt 0.953597 0.531684
vt 0.955686 0.479100
vt 0.901899 0.480504
vt 0.879864 0.598040
vt 0.933470 0.593419
vt 0.863510 0.660702
vt 0.942839 0.653865
vt 0.986261 0.688053
vt 0.891314 0.564980
vt 0.941268 0.576003
vt 0.984371 0.594365
vt 0.861939 0.582840
vt 0.888918 0.602592
vt 0.901899 0.480504
vt 0.899908 0.613397
vt 0.901899 0.480504
vt 0.899908 0.613397
vt 0.888918 0.602592
vt 0.888918 0.602592
vt 0.889424 0.471292
vt 0.888918 0.602592
vt 0.889424 0.471292
vt 0.955686 0.479100
vt 0.953514 0.608776
vt 0.955686 0.479100
vt 0.953514 0.608776
vt 0.984371 0.594365
vt 0.984371 0.594365
vt 0.984877 0.463065
vt 0.984371 0.594365
vt 0.984877 0.463065
vt 0.899810 0.533089
vt 0.900969 0.666012
vt 0.899810 0.533089
vt 0.900969 0.666012
vt 0.890808 0.696280
vt 0.890808 0.696280
vt 0.890808 0.696280
vt 0.891314 0.564980
vt 0.890808 0.696280
vt 0.953597 0.531684
vt 0.954576 0.661392
vt 0.953597 0.531684
vt 0.954576 0.661392
vt 0.986261 0.688053
vt 0.986261 0.688053
vt 0.986767 0.556753
vt 0.986261 0.688053
vt 0.986767 0.556753
vn 0.000000 0.000000 0.000000
vn 0.000000 0.000000 0.000000
vn 0.000000 0.000000 0.000000
vn 0.000000 0.000000 0.000000
vn -0.050988 0.886442 0.460023
vn -0.050988 0.886442 0.460023
vn -0.050988 0.886442 0.460023
vn -0.050988 0.886442 0.460023
vn 0.283052 0.223717 -0.932648
vn 0.283052 0.223717 -0.932648
vn 0.283052 0.223717 -0.932648
vn 0.283052 0.223717 -0.932648
vn -0.087798 -0.996135 -0.002728
vn -0.087798 -0.996135 -0.002728
vn -0.087798 -0.996135 -0.002728
vn -0.087798 -0.996135 -0.002728
vn 0.860260 -0.137503 0.490964
vn 0.860260 -0.137503 0.490964
vn 0.860260 -0.137503 0.490964
vn 0.860260 -0.137503 0.490964
vn -0.999046 0.027810 -0.033668
vn -0.999046 0.027810 -0.033668
vn -0.999046 0.027810 -0.033668
vn -0.999046 0.027810 -0.033668
vn -0.000151 0.953617 0.301023
vn -0.000151 0.953617 0.301023
vn -0.000151 0.953617 0.301023
vn -0.000151 0.953617 0.301023
vn 0.937641 -0.100154 0.332865
vn 0.937641 -0.100154 0.332865
vn 0.937641 -0.100154 0.332865
vn 0.937641 -0.100154 0.332865
vn -0.038033 -0.983797 -0.175208
vn -0.038033 -0.983797 -0.175208
vn -0.038033 -0.983797 -0.175208
vn -0.038033 -0.983797 -0.175208
vn -0.975825 0.069975 -0.207049
vn -0.975825 0.069975 -0.207049
vn -0.975825 0.069975 -0.207049
vn -0.975825 0.069975 -0.207049
vn -0.190288 -0.900690 0.390573
vn -0.190288 -0.900690 0.390573
vn -0.190288 -0.900690 0.390573
vn -0.190288 -0.900690 0.390573
vn 0.664633 -0.746830 0.022567
vn 0.664633 -0.746830 0.022567
vn 0.664633 -0.746830 0.022567
vn 0.664633 -0.746830 0.022567
vn 0.128765 -0.719052 -0.682923
vn 0.128765 -0.719052 -0.682923
vn 0.128765 -0.719052 -0.682923
vn 0.128765 -0.719052 -0.682923
vn -0.691481 -0.626256 -0.360081
vn -0.691480 -0.626256 -0.360081
vn -0.691481 -0.626256 -0.360081
vn -0.691480 -0.626256 -0.360081
vn -0.928036 -0.071703 0.365524
vn -0.928036 -0.071703 0.365524
vn -0.928036 -0.071703 0.365524
vn -0.928036 -0.071703 0.365524
vn -0.691480 -0.626256 -0.360081
vn -0.691481 -0.626256 -0.360081
vn -0.691480 -0.626256 -0.360081
vn -0.691481 -0.626256 -0.360081
vn -0.678337 0.187867 -0.710327
vn -0.678337 0.187867 -0.710327
vn -0.678337 0.187867 -0.710327
vn -0.678337 0.187867 -0.710327
vn -0.664633 0.746830 -0.022567
vn -0.664633 0.746830 -0.022567
vn -0.664633 0.746830 -0.022567
vn -0.664633 0.746830 -0.022567
vn -0.160486 0.623447 0.765217
vn -0.160486 0.623447 0.765217
vn -0.160486 0.623447 0.765217
vn -0.160486 0.623447 0.765217
vn -0.664633 0.746830 -0.022567
vn -0.664633 0.746830 -0.022567
vn -0.664633 0.746830 -0.022567
vn -0.664633 0.746830 -0.022567
vn 0.161368 0.948366 -0.273060
vn 0.161368 0.948366 -0.273060
vn 0.161368 0.948366 -0.273060
vn 0.161368 0.948366 -0.273060
vn 0.691481 0.626256 0.360081
vn 0.691480 0.626256 0.360081
vn 0.691481 0.626256 0.360081
vn 0.691480 0.626256 0.360081
vn 0.577262 -0.205541 0.790267
vn 0.577262 -0.205541 0.790267
vn 0.577262 -0.205541 0.790267
vn 0.577262 -0.205541 0.790267
vn 0.691480 0.626256 0.360081
vn 0.691481 0.626256 0.360081
vn 0.691480 0.626256 0.360081
vn 0.691481 0.626256 0.360081
vn 0.968471 0.041447 -0.245655
vn 0.968471 0.041447 -0.245655
vn 0.968471 0.041447 -0.245655
vn 0.968471 0.041447 -0.245655
vn 0.664633 -0.746830 0.022567
vn 0.664633 -0.746830 0.022567
vn 0.664633 -0.746830 0.022567
vn 0.664633 -0.746830 0.022567
s off
g option6
usemtl blinn1SG
f 1/1/1 2/2/2 4/3/3 3/4/4
f 3/4/5 4/3/6 6/5/7 5/6/8
f 9/7/9 10/48/10 11/30/11 12/21/12
f 7/11/13 8/12/14 2/2/15 1/1/16
f 2/2/17 8/12/18 6/5/19 4/3/20
f 7/11/21 1/1/22 3/4/23 5/6/24
f 13/13/25 14/14/26 15/53/27 16/44/28
f 14/14/29 17/17/30 18/35/31 15/52/32
f 17/17/33 19/19/34 20/26/35 18/34/36
f 19/19/37 13/13/38 16/45/39 20/25/40
f 5/6/41 6/5/42 14/14/43 13/13/44
f 6/5/45 10/51/46 15/15/47 14/14/48
f 10/8/49 9/41/50 16/16/51 15/56/52
f 9/42/53 5/6/54 13/13/55 16/47/56
f 6/5/57 8/12/58 17/17/59 14/14/60
f 8/12/61 11/33/62 18/18/63 17/17/64
f 11/9/65 10/50/66 15/54/67 18/38/68
f 10/49/69 6/5/70 14/14/71 15/55/72
f 8/12/73 7/11/74 19/19/75 17/17/76
f 7/11/77 12/24/78 20/20/79 19/19/80
f 12/10/81 11/32/82 18/36/83 20/29/84
f 11/31/85 8/12/86 17/17/87 18/37/88
f 7/11/89 5/6/90 13/13/91 19/19/92
f 5/6/93 9/40/94 16/43/95 13/13/96
f 9/39/97 12/23/98 20/27/99 16/46/100
f 12/22/101 7/11/102 19/19/103 20/28/104
