# This file uses centimeters as units for non-parametric coordinates.

mtllib boss_migisita1.mtl
g default
v -97.953979 97.275047 -96.636452
v -97.953987 97.275047 -96.636452
v -97.953979 97.275047 -96.636452
v -97.953987 97.275047 -96.636452
v -115.715149 114.368851 -130.638580
v -96.160583 114.656883 -134.826202
v -116.224007 94.725830 -134.365875
v -96.669449 95.013863 -138.553497
v -120.993011 119.120102 -154.957352
v -101.438454 119.408142 -159.144974
v -101.947319 99.765114 -162.872269
v -121.501877 99.477081 -158.684647
v -119.018356 117.872604 -122.905006
v -90.080650 118.298859 -129.102036
v -96.332130 129.640366 -171.879303
v -131.151535 129.127472 -164.422699
v -90.833687 89.230247 -134.617859
v -97.238228 94.663445 -178.516220
v -119.771393 88.804001 -128.420822
v -132.057632 94.150558 -171.059631
vt 0.226201 0.399479
vt 0.226201 0.399479
vt 0.226201 0.399479
vt 0.226201 0.399479
vt 0.231213 0.446577
vt 0.176555 0.445796
vt 0.426864 0.536956
vt 0.481522 0.537736
vt 0.480100 0.484512
vt 0.425442 0.483732
vt 0.175133 0.392572
vt 0.229791 0.393352
vt 0.167322 0.455290
vt 0.248208 0.456445
vt 0.230734 0.487175
vt 0.398470 0.564071
vt 0.246103 0.377681
vt 0.228201 0.392403
vt 0.165218 0.376527
vt 0.130876 0.391013
vt 0.425442 0.483732
vt 0.160381 0.405446
vt 0.425442 0.483732
vt 0.160381 0.405446
vt 0.130876 0.391013
vt 0.130876 0.391013
vt 0.395937 0.469299
vt 0.130876 0.391013
vt 0.395937 0.469299
vt 0.480100 0.484512
vt 0.215039 0.406226
vt 0.480100 0.484512
vt 0.215039 0.406226
vt 0.228201 0.392403
vt 0.228201 0.392403
vt 0.493263 0.470689
vt 0.228201 0.392403
vt 0.493263 0.470689
vt 0.426864 0.536956
vt 0.161803 0.458670
vt 0.426864 0.536956
vt 0.161803 0.458670
vt 0.133408 0.485786
vt 0.133408 0.485786
vt 0.133408 0.485786
vt 0.398470 0.564071
vt 0.133408 0.485786
vt 0.481522 0.537736
vt 0.216461 0.459450
vt 0.481522 0.537736
vt 0.216461 0.459450
vt 0.230734 0.487175
vt 0.230734 0.487175
vt 0.495795 0.565461
vt 0.230734 0.487175
vt 0.495795 0.565461
vn 0.000000 0.000000 0.000000
vn 0.000000 0.000000 0.000000
vn 0.000000 0.000000 0.000000
vn 0.000000 0.000000 0.000000
vn 0.075740 0.906201 0.416009
vn 0.075740 0.906201 0.416009
vn 0.075740 0.906201 0.416009
vn 0.075740 0.906201 0.416009
vn -0.208328 0.187541 -0.959910
vn -0.208328 0.187541 -0.959910
vn -0.208328 0.187541 -0.959910
vn -0.208328 0.187541 -0.959910
vn 0.026407 -0.998156 0.054654
vn 0.026407 -0.998156 0.054654
vn 0.026407 -0.998156 0.054654
vn 0.026407 -0.998156 0.054654
vn 0.998964 -0.032015 0.032340
vn 0.998964 -0.032015 0.032340
vn 0.998964 -0.032015 0.032340
vn 0.998964 -0.032015 0.032340
vn -0.896817 -0.059940 0.438323
vn -0.896817 -0.059940 0.438323
vn -0.896817 -0.059940 0.438323
vn -0.896817 -0.059940 0.438323
vn 0.039437 0.967265 0.250687
vn 0.039437 0.967265 0.250687
vn 0.039437 0.967265 0.250687
vn 0.039437 0.967265 0.250687
vn 0.989553 0.001719 -0.144158
vn 0.989553 0.001719 -0.144158
vn 0.989553 0.001719 -0.144158
vn 0.989553 0.001719 -0.144158
vn -0.011333 -0.992564 -0.121194
vn -0.011333 -0.992564 -0.121194
vn -0.011333 -0.992564 -0.121194
vn -0.011333 -0.992564 -0.121194
vn -0.961450 -0.027019 0.273651
vn -0.961450 -0.027019 0.273651
vn -0.961450 -0.027019 0.273651
vn -0.961450 -0.027019 0.273651
vn 0.109116 -0.887092 0.448511
vn 0.109116 -0.887092 0.448511
vn 0.109116 -0.887092 0.448511
vn 0.109116 -0.887092 0.448511
vn 0.673367 -0.684302 -0.279835
vn 0.673367 -0.684302 -0.279835
vn 0.673367 -0.684302 -0.279835
vn 0.673367 -0.684302 -0.279835
vn -0.128618 -0.747238 -0.651992
vn -0.128618 -0.747238 -0.651992
vn -0.128618 -0.747238 -0.651992
vn -0.128618 -0.747238 -0.651992
vn -0.709349 -0.704669 0.016275
vn -0.709349 -0.704669 0.016275
vn -0.709349 -0.704669 0.016275
vn -0.709349 -0.704669 0.016275
vn -0.638328 -0.127510 0.759130
vn -0.638328 -0.127510 0.759130
vn -0.638328 -0.127510 0.759130
vn -0.638328 -0.127510 0.759130
vn -0.709349 -0.704669 0.016275
vn -0.709349 -0.704669 0.016275
vn -0.709349 -0.704669 0.016275
vn -0.709349 -0.704669 0.016275
vn -0.946327 0.083750 -0.312172
vn -0.946327 0.083750 -0.312172
vn -0.946327 0.083750 -0.312172
vn -0.946327 0.083750 -0.312172
vn -0.673367 0.684302 0.279835
vn -0.673367 0.684302 0.279835
vn -0.673367 0.684302 0.279835
vn -0.673367 0.684302 0.279835
vn 0.149056 0.654680 0.741064
vn 0.149056 0.654680 0.741064
vn 0.149056 0.654680 0.741064
vn 0.149056 0.654680 0.741064
vn -0.673367 0.684302 0.279835
vn -0.673367 0.684302 0.279835
vn -0.673367 0.684302 0.279835
vn -0.673367 0.684302 0.279835
vn -0.084923 0.939471 -0.331936
vn -0.084923 0.939471 -0.331936
vn -0.084923 0.939471 -0.331936
vn -0.084923 0.939471 -0.331936
vn 0.709349 0.704669 -0.016275
vn 0.709349 0.704669 -0.016275
vn 0.709349 0.704669 -0.016275
vn 0.709349 0.704669 -0.016275
vn 0.896500 -0.104902 0.430445
vn 0.896500 -0.104902 0.430445
vn 0.896500 -0.104902 0.430445
vn 0.896500 -0.104902 0.430445
vn 0.709349 0.704669 -0.016275
vn 0.709349 0.704669 -0.016275
vn 0.709349 0.704669 -0.016275
vn 0.709349 0.704669 -0.016275
vn 0.732787 0.108483 -0.671755
vn 0.732787 0.108483 -0.671755
vn 0.732787 0.108483 -0.671755
vn 0.732787 0.108483 -0.671755
vn 0.673367 -0.684302 -0.279835
vn 0.673367 -0.684302 -0.279835
vn 0.673367 -0.684302 -0.279835
vn 0.673367 -0.684302 -0.279835
s off
g option7
usemtl blinn1SG
f 1/1/1 2/2/2 4/3/3 3/4/4
f 3/4/5 4/3/6 6/5/7 5/6/8
f 9/7/9 10/48/10 11/30/11 12/21/12
f 7/11/13 8/12/14 2/2/15 1/1/16
f 2/2/17 8/12/18 6/5/19 4/3/20
f 7/11/21 1/1/22 3/4/23 5/6/24
f 13/13/25 14/14/26 15/53/27 16/44/28
f 14/14/29 17/17/30 18/35/31 15/52/32
f 17/17/33 19/19/34 20/26/35 18/34/36
f 19/19/37 13/13/38 16/45/39 20/25/40
f 5/6/41 6/5/42 14/14/43 13/13/44
f 6/5/45 10/51/46 15/15/47 14/14/48
f 10/8/49 9/41/50 16/16/51 15/56/52
f 9/42/53 5/6/54 13/13/55 16/47/56
f 6/5/57 8/12/58 17/17/59 14/14/60
f 8/12/61 11/33/62 18/18/63 17/17/64
f 11/9/65 10/50/66 15/54/67 18/38/68
f 10/49/69 6/5/70 14/14/71 15/55/72
f 8/12/73 7/11/74 19/19/75 17/17/76
f 7/11/77 12/24/78 20/20/79 19/19/80
f 12/10/81 11/32/82 18/36/83 20/29/84
f 11/31/85 8/12/86 17/17/87 18/37/88
f 7/11/89 5/6/90 13/13/91 19/19/92
f 5/6/93 9/40/94 16/43/95 13/13/96
f 9/39/97 12/23/98 20/27/99 16/46/100
f 12/22/101 7/11/102 19/19/103 20/28/104
