# This file uses centimeters as units for non-parametric coordinates.

mtllib boss_hidariue1.mtl
g default
v 90.173668 -92.674622 -96.732178
v 90.173668 -92.674622 -96.732178
v 90.173668 -92.674629 -96.732178
v 90.173668 -92.674629 -96.732178
v 88.444786 -92.833939 -138.693909
v 107.967110 -91.034988 -134.738846
v 89.258438 -112.230766 -133.887543
v 108.780762 -110.431808 -129.932480
v 93.851288 -98.573029 -162.770172
v 113.373619 -96.774078 -158.815094
v 114.187271 -116.170906 -154.008728
v 94.664948 -117.969856 -157.963806
v 82.268593 -87.234886 -135.019562
v 111.158592 -84.572716 -129.166672
v 123.467003 -91.463898 -171.576813
v 88.704994 -94.667160 -178.619324
v 112.362679 -113.276993 -122.054001
v 124.915817 -126.002434 -163.018463
v 83.472679 -115.939163 -127.906891
v 90.153816 -129.205688 -170.060974
vt 0.737030 0.128224
vt 0.737030 0.128224
vt 0.737030 0.128224
vt 0.737030 0.128224
vt 0.786765 0.132667
vt 0.732197 0.127793
vt 0.875907 0.123956
vt 0.930690 0.123491
vt 0.927834 0.070963
vt 0.873051 0.071427
vt 0.734472 0.075236
vt 0.789039 0.080110
vt 0.714934 0.142964
vt 0.795686 0.150177
vt 0.830090 0.131505
vt 0.862622 0.135890
vt 0.799052 0.072401
vt 0.834140 0.037920
vt 0.718300 0.065187
vt 0.736974 0.029241
vt 0.873051 0.071427
vt 0.749584 0.059685
vt 0.873051 0.071427
vt 0.857536 0.042356
vt 0.857536 0.042356
vt 0.927834 0.070963
vt 0.804152 0.064560
vt 0.927834 0.070963
vt 0.955084 0.041529
vt 0.955084 0.041529
vt 0.875907 0.123956
vt 0.747309 0.112242
vt 0.875907 0.123956
vt 0.732925 0.122825
vt 0.862622 0.135890
vt 0.930690 0.123491
vt 0.801877 0.117117
vt 0.930690 0.123491
vt 0.960170 0.135063
vt 0.960170 0.135063
vn 0.000000 0.000000 0.000000
vn 0.000000 0.000000 0.000000
vn 0.000000 0.000000 0.000000
vn 0.000000 0.000000 0.000000
vn -0.091760 0.995781 0.000000
vn -0.091760 0.995781 0.000000
vn -0.091760 0.995781 0.000000
vn -0.091760 0.995781 0.000000
vn 0.213406 -0.226533 -0.950337
vn 0.213406 -0.226533 -0.950337
vn 0.213406 -0.226533 -0.950337
vn 0.213406 -0.226533 -0.950337
vn -0.012877 -0.884707 0.465969
vn -0.012877 -0.884707 0.465969
vn -0.012877 -0.884707 0.465969
vn -0.012877 -0.884707 0.465969
vn 0.894009 0.142740 0.424703
vn 0.894009 0.142740 0.424703
vn 0.894009 0.142740 0.424703
vn 0.894009 0.142740 0.424703
vn -0.998646 -0.031666 0.041266
vn -0.998646 -0.031666 0.041266
vn -0.998646 -0.031666 0.041266
vn -0.998646 -0.031666 0.041266
vn -0.054984 0.982912 -0.175670
vn -0.054984 0.982912 -0.175670
vn -0.054984 0.982912 -0.175670
vn -0.054984 0.982912 -0.175670
vn 0.959499 0.105023 0.261404
vn 0.959499 0.105023 0.261404
vn 0.959499 0.105023 0.261404
vn 0.959499 0.105023 0.261404
vn 0.026196 -0.952353 0.303872
vn 0.026196 -0.952353 0.303872
vn 0.026196 -0.952353 0.303872
vn 0.026196 -0.952353 0.303872
vn -0.988288 -0.074463 -0.133202
vn -0.988288 -0.074463 -0.133202
vn -0.988288 -0.074463 -0.133202
vn -0.988288 -0.074463 -0.133202
vn -0.100300 -0.620857 0.777481
vn -0.100300 -0.620857 0.777481
vn -0.100300 -0.620857 0.777481
vn -0.100300 -0.620857 0.777481
vn 0.718985 -0.622179 0.309763
vn 0.718985 -0.622179 0.309763
vn 0.718985 -0.622179 0.309763
vn 0.718985 -0.622179 0.309763
vn 0.144306 -0.948885 -0.280701
vn 0.144306 -0.948885 -0.280701
vn 0.144306 -0.948885 -0.280701
vn 0.144306 -0.948885 -0.280701
vn -0.661451 -0.749384 0.030098
vn -0.661451 -0.749384 0.030098
vn -0.661451 -0.749384 0.030098
vn -0.661451 -0.749384 0.030098
vn -0.898381 0.069767 0.433640
vn -0.898381 0.069767 0.433640
vn -0.898381 0.069767 0.433640
vn -0.898381 0.069767 0.433640
vn -0.661451 -0.749384 0.030098
vn -0.661451 -0.749384 0.030098
vn -0.661451 -0.749384 0.030098
vn -0.661451 -0.749384 0.030098
vn -0.728800 -0.193337 -0.656865
vn -0.728800 -0.193337 -0.656865
vn -0.728800 -0.193337 -0.656864
vn -0.728800 -0.193337 -0.656864
vn -0.718985 0.622179 -0.309763
vn -0.718985 0.622179 -0.309763
vn -0.718985 0.622179 -0.309763
vn -0.718985 0.622179 -0.309763
vn -0.164164 0.901590 0.400231
vn -0.164164 0.901590 0.400231
vn -0.164164 0.901590 0.400231
vn -0.164164 0.901590 0.400231
vn -0.718985 0.622179 -0.309763
vn -0.718985 0.622179 -0.309763
vn -0.718985 0.622179 -0.309763
vn -0.718985 0.622179 -0.309763
vn 0.074439 0.716684 -0.693414
vn 0.074439 0.716684 -0.693414
vn 0.074439 0.716684 -0.693414
vn 0.074439 0.716684 -0.693414
vn 0.661451 0.749384 -0.030098
vn 0.661451 0.749384 -0.030098
vn 0.661451 0.749384 -0.030098
vn 0.661451 0.749384 -0.030098
vn 0.633917 0.210966 0.744072
vn 0.633917 0.210966 0.744072
vn 0.633917 0.210966 0.744072
vn 0.633917 0.210966 0.744072
vn 0.661451 0.749384 -0.030098
vn 0.661451 0.749384 -0.030098
vn 0.661451 0.749384 -0.030098
vn 0.661451 0.749384 -0.030098
vn 0.947545 -0.038864 -0.317250
vn 0.947545 -0.038864 -0.317250
vn 0.947545 -0.038864 -0.317250
vn 0.947545 -0.038864 -0.317250
vn 0.718985 -0.622179 0.309763
vn 0.718985 -0.622179 0.309763
vn 0.718985 -0.622179 0.309763
vn 0.718985 -0.622179 0.309763
s off
g option5
usemtl blinn1SG
f 1/1/1 2/2/2 4/3/3 3/4/4
f 3/4/5 4/3/6 6/5/7 5/6/8
f 9/7/9 10/36/10 11/26/11 12/21/12
f 7/11/13 8/12/14 2/2/15 1/1/16
f 2/2/17 8/12/18 6/5/19 4/3/20
f 7/11/21 1/1/22 3/4/23 5/6/24
f 13/13/25 14/14/26 15/15/27 16/34/28
f 14/14/29 17/17/30 18/18/31 15/15/32
f 17/17/33 19/19/34 20/20/35 18/18/36
f 19/19/37 13/13/38 16/34/39 20/20/40
f 5/6/41 6/5/42 14/14/43 13/13/44
f 6/5/45 10/37/46 15/15/47 14/14/48
f 10/8/49 9/33/50 16/16/51 15/40/52
f 9/32/53 5/6/54 13/13/55 16/34/56
f 6/5/57 8/12/58 17/17/59 14/14/60
f 8/12/61 11/27/62 18/18/63 17/17/64
f 11/9/65 10/38/66 15/39/67 18/30/68
f 10/37/69 6/5/70 14/14/71 15/15/72
f 8/12/73 7/11/74 19/19/75 17/17/76
f 7/11/77 12/22/78 20/20/79 19/19/80
f 12/10/81 11/28/82 18/29/83 20/25/84
f 11/27/85 8/12/86 17/17/87 18/18/88
f 7/11/89 5/6/90 13/13/91 19/19/92
f 5/6/93 9/32/94 16/34/95 13/13/96
f 9/31/97 12/23/98 20/24/99 16/35/100
f 12/22/101 7/11/102 19/19/103 20/20/104
