# This file uses centimeters as units for non-parametric coordinates.

mtllib boss_hidarisita2.mtl
g default
v 39.897827 44.584274 -96.909073
v 39.897827 44.584274 -96.909073
v 39.897827 44.584270 -96.909073
v 39.897827 44.584270 -96.909073
v 41.691772 63.992924 -134.109711
v 60.870106 62.287750 -128.698257
v 41.312084 44.574566 -138.882889
v 60.490417 42.869392 -133.471436
v 48.862732 69.660675 -157.737823
v 68.041069 67.955498 -152.326355
v 67.661377 48.537144 -157.099533
v 48.483044 50.242313 -162.511002
v 35.461094 67.701103 -128.593964
v 63.842037 65.177719 -120.585838
v 79.376869 77.795204 -160.549225
v 45.227386 80.831482 -170.185028
v 63.280159 36.441574 -127.649399
v 78.700790 43.218323 -169.048492
v 34.899216 38.964966 -135.657516
v 44.551304 46.254601 -178.684280
vt 0.731004 0.571073
vt 0.731004 0.571073
vt 0.731004 0.571073
vt 0.731004 0.571073
vt 0.789625 0.619041
vt 0.736018 0.623662
vt 0.752649 0.401119
vt 0.806445 0.400098
vt 0.808909 0.347530
vt 0.755114 0.348551
vt 0.734957 0.571046
vt 0.788563 0.566426
vt 0.718602 0.633709
vt 0.797931 0.626872
vt 0.841354 0.661060
vt 0.744345 0.433210
vt 0.796361 0.549010
vt 0.839464 0.567372
vt 0.717032 0.555847
vt 0.744011 0.575599
vt 0.755114 0.348551
vt 0.755001 0.586404
vt 0.755114 0.348551
vt 0.742455 0.339522
vt 0.742455 0.339522
vt 0.808909 0.347530
vt 0.808607 0.581783
vt 0.808909 0.347530
vt 0.837909 0.331295
vt 0.837909 0.331295
vt 0.752649 0.401119
vt 0.756062 0.639019
vt 0.752649 0.401119
vt 0.745901 0.669287
vt 0.744345 0.433210
vt 0.806445 0.400098
vt 0.809669 0.634399
vt 0.806445 0.400098
vt 0.839798 0.424983
vt 0.839798 0.424983
vt 0.755001 0.586404
vt 0.744011 0.575599
vt 0.744011 0.575599
vt 0.744011 0.575599
vt 0.808607 0.581783
vt 0.839464 0.567372
vt 0.839464 0.567372
vt 0.839464 0.567372
vt 0.756062 0.639019
vt 0.745901 0.669287
vt 0.745901 0.669287
vt 0.745901 0.669287
vt 0.809669 0.634399
vt 0.841354 0.661060
vt 0.841354 0.661060
vt 0.841354 0.661060
vn 0.000000 0.000000 0.000000
vn 0.000000 0.000000 0.000000
vn 0.000000 0.000000 0.000000
vn 0.000000 0.000000 0.000000
vn -0.050988 0.886442 0.460023
vn -0.050988 0.886442 0.460023
vn -0.050988 0.886442 0.460023
vn -0.050988 0.886442 0.460023
vn 0.283052 0.223717 -0.932648
vn 0.283052 0.223717 -0.932648
vn 0.283052 0.223717 -0.932648
vn 0.283052 0.223717 -0.932648
vn -0.087798 -0.996135 -0.002728
vn -0.087798 -0.996135 -0.002728
vn -0.087798 -0.996135 -0.002728
vn -0.087798 -0.996135 -0.002728
vn 0.860260 -0.137503 0.490964
vn 0.860260 -0.137503 0.490964
vn 0.860260 -0.137503 0.490964
vn 0.860260 -0.137503 0.490964
vn -0.999046 0.027810 -0.033668
vn -0.999046 0.027810 -0.033668
vn -0.999046 0.027810 -0.033668
vn -0.999046 0.027810 -0.033668
vn -0.000151 0.953617 0.301023
vn -0.000151 0.953617 0.301023
vn -0.000151 0.953617 0.301023
vn -0.000151 0.953617 0.301023
vn 0.937641 -0.100154 0.332865
vn 0.937641 -0.100154 0.332865
vn 0.937641 -0.100154 0.332865
vn 0.937641 -0.100154 0.332865
vn -0.038033 -0.983797 -0.175208
vn -0.038033 -0.983797 -0.175208
vn -0.038033 -0.983797 -0.175208
vn -0.038033 -0.983797 -0.175208
vn -0.975825 0.069975 -0.207049
vn -0.975825 0.069975 -0.207049
vn -0.975825 0.069975 -0.207049
vn -0.975825 0.069975 -0.207049
vn -0.190288 -0.900690 0.390573
vn -0.190288 -0.900690 0.390573
vn -0.190288 -0.900690 0.390573
vn -0.190288 -0.900690 0.390573
vn 0.664633 -0.746830 0.022567
vn 0.664633 -0.746830 0.022567
vn 0.664633 -0.746830 0.022567
vn 0.664633 -0.746830 0.022567
vn 0.128765 -0.719052 -0.682923
vn 0.128765 -0.719052 -0.682923
vn 0.128765 -0.719052 -0.682923
vn 0.128765 -0.719052 -0.682923
vn -0.691481 -0.626256 -0.360081
vn -0.691480 -0.626256 -0.360081
vn -0.691481 -0.626256 -0.360081
vn -0.691480 -0.626256 -0.360081
vn -0.928036 -0.071703 0.365524
vn -0.928036 -0.071703 0.365524
vn -0.928036 -0.071703 0.365524
vn -0.928036 -0.071703 0.365524
vn -0.691480 -0.626256 -0.360081
vn -0.691481 -0.626256 -0.360081
vn -0.691480 -0.626256 -0.360081
vn -0.691481 -0.626256 -0.360081
vn -0.678337 0.187867 -0.710327
vn -0.678337 0.187867 -0.710327
vn -0.678337 0.187867 -0.710327
vn -0.678337 0.187867 -0.710327
vn -0.664633 0.746830 -0.022567
vn -0.664633 0.746830 -0.022567
vn -0.664633 0.746830 -0.022567
vn -0.664633 0.746830 -0.022567
vn -0.160486 0.623447 0.765217
vn -0.160486 0.623447 0.765217
vn -0.160486 0.623447 0.765217
vn -0.160486 0.623447 0.765217
vn -0.664633 0.746830 -0.022567
vn -0.664633 0.746830 -0.022567
vn -0.664633 0.746830 -0.022567
vn -0.664633 0.746830 -0.022567
vn 0.161368 0.948366 -0.273060
vn 0.161368 0.948366 -0.273060
vn 0.161368 0.948366 -0.273060
vn 0.161368 0.948366 -0.273060
vn 0.691481 0.626256 0.360081
vn 0.691480 0.626256 0.360081
vn 0.691481 0.626256 0.360081
vn 0.691480 0.626256 0.360081
vn 0.577262 -0.205541 0.790267
vn 0.577262 -0.205541 0.790267
vn 0.577262 -0.205541 0.790267
vn 0.577262 -0.205541 0.790267
vn 0.691480 0.626256 0.360081
vn 0.691481 0.626256 0.360081
vn 0.691480 0.626256 0.360081
vn 0.691481 0.626256 0.360081
vn 0.968471 0.041447 -0.245655
vn 0.968471 0.041447 -0.245655
vn 0.968471 0.041447 -0.245655
vn 0.968471 0.041447 -0.245655
vn 0.664633 -0.746830 0.022567
vn 0.664633 -0.746830 0.022567
vn 0.664633 -0.746830 0.022567
vn 0.664633 -0.746830 0.022567
s off
g option1
usemtl blinn1SG
f 1/1/1 2/2/2 4/3/3 3/4/4
f 3/4/5 4/3/6 6/5/7 5/6/8
f 9/7/9 10/36/10 11/26/11 12/21/12
f 7/11/13 8/12/14 2/2/15 1/1/16
f 2/2/17 8/12/18 6/5/19 4/3/20
f 7/11/21 1/1/22 3/4/23 5/6/24
f 13/13/25 14/14/26 15/55/27 16/50/28
f 14/14/29 17/17/30 18/47/31 15/54/32
f 17/17/33 19/19/34 20/43/35 18/46/36
f 19/19/37 13/13/38 16/51/39 20/42/40
f 5/6/41 6/5/42 14/14/43 13/13/44
f 6/5/45 10/53/46 15/15/47 14/14/48
f 10/8/49 9/33/50 16/16/51 15/40/52
f 9/49/53 5/6/54 13/13/55 16/52/56
f 6/5/57 8/12/58 17/17/59 14/14/60
f 8/12/61 11/45/62 18/18/63 17/17/64
f 11/9/65 10/38/66 15/39/67 18/30/68
f 10/37/69 6/5/70 14/14/71 15/56/72
f 8/12/73 7/11/74 19/19/75 17/17/76
f 7/11/77 12/41/78 20/20/79 19/19/80
f 12/10/81 11/28/82 18/29/83 20/25/84
f 11/27/85 8/12/86 17/17/87 18/48/88
f 7/11/89 5/6/90 13/13/91 19/19/92
f 5/6/93 9/32/94 16/34/95 13/13/96
f 9/31/97 12/23/98 20/24/99 16/35/100
f 12/22/101 7/11/102 19/19/103 20/44/104
